<mxfile host="app.diagrams.net" modified="2023-03-06T11:30:43.574Z" agent="5.0 (Macintosh; Intel Mac OS X 10_15_7) AppleWebKit/537.36 (KHTML, like Gecko) Chrome/110.0.0.0 Safari/537.36" etag="3f0a3UD1EHIH6urZXtJt" version="21.0.2" type="github">
  <diagram name="第 1 页" id="Dc70c8iUVvS1Q9qTM1lu">
    <mxGraphModel dx="1405" dy="901" grid="0" gridSize="10" guides="1" tooltips="1" connect="1" arrows="1" fold="1" page="0" pageScale="1" pageWidth="827" pageHeight="1169" math="0" shadow="0">
      <root>
        <mxCell id="0" />
        <mxCell id="1" parent="0" />
        <mxCell id="fsB3KkUO0RHxOK5EsC4q-1" value="" style="endArrow=classic;html=1;rounded=0;" edge="1" parent="1">
          <mxGeometry width="50" height="50" relative="1" as="geometry">
            <mxPoint x="120" y="80" as="sourcePoint" />
            <mxPoint x="880" y="80" as="targetPoint" />
          </mxGeometry>
        </mxCell>
        <mxCell id="fsB3KkUO0RHxOK5EsC4q-2" value="时间轴" style="text;html=1;align=center;verticalAlign=middle;resizable=0;points=[];autosize=1;strokeColor=none;fillColor=none;fontStyle=1;fontSize=18;" vertex="1" parent="1">
          <mxGeometry x="120" y="40" width="80" height="40" as="geometry" />
        </mxCell>
        <mxCell id="fsB3KkUO0RHxOK5EsC4q-15" style="edgeStyle=orthogonalEdgeStyle;rounded=0;orthogonalLoop=1;jettySize=auto;html=1;exitX=1;exitY=0.5;exitDx=0;exitDy=0;entryX=0;entryY=0.5;entryDx=0;entryDy=0;" edge="1" parent="1" source="fsB3KkUO0RHxOK5EsC4q-5" target="fsB3KkUO0RHxOK5EsC4q-8">
          <mxGeometry relative="1" as="geometry" />
        </mxCell>
        <mxCell id="fsB3KkUO0RHxOK5EsC4q-5" value="浏览器请求 HTML" style="whiteSpace=wrap;html=1;fillColor=#dae8fc;strokeColor=#6c8ebf;" vertex="1" parent="1">
          <mxGeometry x="120" y="120" width="120" height="40" as="geometry" />
        </mxCell>
        <mxCell id="fsB3KkUO0RHxOK5EsC4q-6" value="CSR" style="text;html=1;align=center;verticalAlign=middle;resizable=0;points=[];autosize=1;strokeColor=none;fillColor=none;fontSize=20;fontStyle=1" vertex="1" parent="1">
          <mxGeometry x="40" y="120" width="70" height="40" as="geometry" />
        </mxCell>
        <mxCell id="fsB3KkUO0RHxOK5EsC4q-7" value="SSR" style="text;html=1;align=center;verticalAlign=middle;resizable=0;points=[];autosize=1;strokeColor=none;fillColor=none;fontSize=20;fontStyle=1" vertex="1" parent="1">
          <mxGeometry x="50" y="200" width="60" height="40" as="geometry" />
        </mxCell>
        <mxCell id="fsB3KkUO0RHxOK5EsC4q-16" style="edgeStyle=orthogonalEdgeStyle;rounded=0;orthogonalLoop=1;jettySize=auto;html=1;exitX=1;exitY=0.5;exitDx=0;exitDy=0;entryX=0;entryY=0.5;entryDx=0;entryDy=0;" edge="1" parent="1" source="fsB3KkUO0RHxOK5EsC4q-8" target="fsB3KkUO0RHxOK5EsC4q-9">
          <mxGeometry relative="1" as="geometry" />
        </mxCell>
        <mxCell id="fsB3KkUO0RHxOK5EsC4q-8" value="浏览器请求 JS" style="whiteSpace=wrap;html=1;fillColor=#dae8fc;strokeColor=#6c8ebf;" vertex="1" parent="1">
          <mxGeometry x="280" y="120" width="120" height="40" as="geometry" />
        </mxCell>
        <mxCell id="fsB3KkUO0RHxOK5EsC4q-17" style="edgeStyle=orthogonalEdgeStyle;rounded=0;orthogonalLoop=1;jettySize=auto;html=1;exitX=1;exitY=0.5;exitDx=0;exitDy=0;entryX=0;entryY=0.5;entryDx=0;entryDy=0;" edge="1" parent="1" source="fsB3KkUO0RHxOK5EsC4q-9" target="fsB3KkUO0RHxOK5EsC4q-13">
          <mxGeometry relative="1" as="geometry" />
        </mxCell>
        <mxCell id="fsB3KkUO0RHxOK5EsC4q-9" value="浏览器请求数据" style="whiteSpace=wrap;html=1;fillColor=#dae8fc;strokeColor=#6c8ebf;" vertex="1" parent="1">
          <mxGeometry x="440" y="120" width="120" height="40" as="geometry" />
        </mxCell>
        <mxCell id="fsB3KkUO0RHxOK5EsC4q-10" value="用户看到页面内容" style="whiteSpace=wrap;html=1;fillColor=#f8cecc;strokeColor=#b85450;" vertex="1" parent="1">
          <mxGeometry x="760" y="120" width="120" height="40" as="geometry" />
        </mxCell>
        <mxCell id="fsB3KkUO0RHxOK5EsC4q-21" style="edgeStyle=orthogonalEdgeStyle;rounded=0;orthogonalLoop=1;jettySize=auto;html=1;exitX=1;exitY=0.5;exitDx=0;exitDy=0;entryX=0;entryY=0.5;entryDx=0;entryDy=0;" edge="1" parent="1" source="fsB3KkUO0RHxOK5EsC4q-11" target="fsB3KkUO0RHxOK5EsC4q-19">
          <mxGeometry relative="1" as="geometry" />
        </mxCell>
        <mxCell id="fsB3KkUO0RHxOK5EsC4q-11" value="浏览器请求 HTML" style="whiteSpace=wrap;html=1;fillColor=#dae8fc;strokeColor=#6c8ebf;" vertex="1" parent="1">
          <mxGeometry x="120" y="200" width="120" height="40" as="geometry" />
        </mxCell>
        <mxCell id="fsB3KkUO0RHxOK5EsC4q-12" value="用户看到页面内容" style="whiteSpace=wrap;html=1;fillColor=#f8cecc;strokeColor=#b85450;" vertex="1" parent="1">
          <mxGeometry x="600" y="200" width="120" height="40" as="geometry" />
        </mxCell>
        <mxCell id="fsB3KkUO0RHxOK5EsC4q-18" style="edgeStyle=orthogonalEdgeStyle;rounded=0;orthogonalLoop=1;jettySize=auto;html=1;exitX=1;exitY=0.5;exitDx=0;exitDy=0;entryX=0;entryY=0.5;entryDx=0;entryDy=0;" edge="1" parent="1" source="fsB3KkUO0RHxOK5EsC4q-13" target="fsB3KkUO0RHxOK5EsC4q-10">
          <mxGeometry relative="1" as="geometry" />
        </mxCell>
        <mxCell id="fsB3KkUO0RHxOK5EsC4q-13" value="浏览器生成完整 HTML" style="whiteSpace=wrap;html=1;fillColor=#dae8fc;strokeColor=#6c8ebf;" vertex="1" parent="1">
          <mxGeometry x="600" y="120" width="120" height="40" as="geometry" />
        </mxCell>
        <mxCell id="fsB3KkUO0RHxOK5EsC4q-22" style="edgeStyle=orthogonalEdgeStyle;rounded=0;orthogonalLoop=1;jettySize=auto;html=1;exitX=1;exitY=0.5;exitDx=0;exitDy=0;entryX=0;entryY=0.5;entryDx=0;entryDy=0;" edge="1" parent="1" source="fsB3KkUO0RHxOK5EsC4q-19" target="fsB3KkUO0RHxOK5EsC4q-20">
          <mxGeometry relative="1" as="geometry" />
        </mxCell>
        <mxCell id="fsB3KkUO0RHxOK5EsC4q-19" value="服务器请求数据" style="whiteSpace=wrap;html=1;fillColor=#dae8fc;strokeColor=#6c8ebf;" vertex="1" parent="1">
          <mxGeometry x="280" y="200" width="120" height="40" as="geometry" />
        </mxCell>
        <mxCell id="fsB3KkUO0RHxOK5EsC4q-23" style="edgeStyle=orthogonalEdgeStyle;rounded=0;orthogonalLoop=1;jettySize=auto;html=1;exitX=1;exitY=0.5;exitDx=0;exitDy=0;entryX=0;entryY=0.5;entryDx=0;entryDy=0;" edge="1" parent="1" source="fsB3KkUO0RHxOK5EsC4q-20" target="fsB3KkUO0RHxOK5EsC4q-12">
          <mxGeometry relative="1" as="geometry" />
        </mxCell>
        <mxCell id="fsB3KkUO0RHxOK5EsC4q-20" value="服务器生成完整 HTML" style="whiteSpace=wrap;html=1;fillColor=#dae8fc;strokeColor=#6c8ebf;" vertex="1" parent="1">
          <mxGeometry x="440" y="200" width="120" height="40" as="geometry" />
        </mxCell>
        <mxCell id="fsB3KkUO0RHxOK5EsC4q-24" value="CSR" style="text;html=1;align=center;verticalAlign=middle;resizable=0;points=[];autosize=1;strokeColor=none;fillColor=none;fontSize=20;fontStyle=1" vertex="1" parent="1">
          <mxGeometry x="45" y="335" width="70" height="40" as="geometry" />
        </mxCell>
        <mxCell id="fsB3KkUO0RHxOK5EsC4q-25" value="SSR" style="text;html=1;align=center;verticalAlign=middle;resizable=0;points=[];autosize=1;strokeColor=none;fillColor=none;fontSize=20;fontStyle=1" vertex="1" parent="1">
          <mxGeometry x="50" y="485" width="60" height="40" as="geometry" />
        </mxCell>
        <mxCell id="fsB3KkUO0RHxOK5EsC4q-26" value="React App&lt;br&gt;" style="whiteSpace=wrap;html=1;fillColor=#fff2cc;strokeColor=#d6b656;" vertex="1" parent="1">
          <mxGeometry x="120" y="310" width="120" height="90" as="geometry" />
        </mxCell>
        <mxCell id="fsB3KkUO0RHxOK5EsC4q-27" value="API Server" style="whiteSpace=wrap;html=1;fillColor=#fff2cc;strokeColor=#d6b656;" vertex="1" parent="1">
          <mxGeometry x="280" y="310" width="120" height="90" as="geometry" />
        </mxCell>
        <mxCell id="fsB3KkUO0RHxOK5EsC4q-28" value="浏览器端" style="text;html=1;align=center;verticalAlign=middle;resizable=0;points=[];autosize=1;strokeColor=none;fillColor=none;fontSize=14;" vertex="1" parent="1">
          <mxGeometry x="140" y="410" width="80" height="30" as="geometry" />
        </mxCell>
        <mxCell id="fsB3KkUO0RHxOK5EsC4q-30" value="后端" style="text;html=1;align=center;verticalAlign=middle;resizable=0;points=[];autosize=1;strokeColor=none;fillColor=none;fontSize=14;" vertex="1" parent="1">
          <mxGeometry x="315" y="410" width="50" height="30" as="geometry" />
        </mxCell>
        <mxCell id="fsB3KkUO0RHxOK5EsC4q-31" value="" style="endArrow=classic;startArrow=classic;html=1;rounded=0;exitX=1;exitY=0.5;exitDx=0;exitDy=0;entryX=0;entryY=0.5;entryDx=0;entryDy=0;" edge="1" parent="1" source="fsB3KkUO0RHxOK5EsC4q-26" target="fsB3KkUO0RHxOK5EsC4q-27">
          <mxGeometry width="50" height="50" relative="1" as="geometry">
            <mxPoint x="460" y="340" as="sourcePoint" />
            <mxPoint x="510" y="290" as="targetPoint" />
          </mxGeometry>
        </mxCell>
        <mxCell id="fsB3KkUO0RHxOK5EsC4q-32" value="React App&lt;br&gt;" style="whiteSpace=wrap;html=1;fillColor=#fff2cc;strokeColor=#d6b656;" vertex="1" parent="1">
          <mxGeometry x="120" y="460" width="120" height="90" as="geometry" />
        </mxCell>
        <mxCell id="fsB3KkUO0RHxOK5EsC4q-33" value="API Server" style="whiteSpace=wrap;html=1;fillColor=#fff2cc;strokeColor=#d6b656;" vertex="1" parent="1">
          <mxGeometry x="460" y="460" width="120" height="90" as="geometry" />
        </mxCell>
        <mxCell id="fsB3KkUO0RHxOK5EsC4q-34" value="浏览器端" style="text;html=1;align=center;verticalAlign=middle;resizable=0;points=[];autosize=1;strokeColor=none;fillColor=none;fontSize=14;" vertex="1" parent="1">
          <mxGeometry x="140" y="560" width="80" height="30" as="geometry" />
        </mxCell>
        <mxCell id="fsB3KkUO0RHxOK5EsC4q-35" value="后端" style="text;html=1;align=center;verticalAlign=middle;resizable=0;points=[];autosize=1;strokeColor=none;fillColor=none;fontSize=14;" vertex="1" parent="1">
          <mxGeometry x="490" y="560" width="50" height="30" as="geometry" />
        </mxCell>
        <mxCell id="fsB3KkUO0RHxOK5EsC4q-37" value="" style="whiteSpace=wrap;html=1;fillColor=#fff2cc;strokeColor=#d6b656;" vertex="1" parent="1">
          <mxGeometry x="280" y="460" width="140" height="90" as="geometry" />
        </mxCell>
        <mxCell id="fsB3KkUO0RHxOK5EsC4q-38" value="React App" style="rounded=0;whiteSpace=wrap;html=1;fillColor=#dae8fc;strokeColor=#6c8ebf;" vertex="1" parent="1">
          <mxGeometry x="300" y="470" width="100" height="30" as="geometry" />
        </mxCell>
        <mxCell id="fsB3KkUO0RHxOK5EsC4q-41" value="Express/Koa/..." style="rounded=0;whiteSpace=wrap;html=1;fillColor=#dae8fc;strokeColor=#6c8ebf;" vertex="1" parent="1">
          <mxGeometry x="300" y="510" width="100" height="30" as="geometry" />
        </mxCell>
        <mxCell id="fsB3KkUO0RHxOK5EsC4q-42" value="服务端" style="text;html=1;align=center;verticalAlign=middle;resizable=0;points=[];autosize=1;strokeColor=none;fillColor=none;fontSize=14;" vertex="1" parent="1">
          <mxGeometry x="305" y="560" width="70" height="30" as="geometry" />
        </mxCell>
        <mxCell id="fsB3KkUO0RHxOK5EsC4q-43" value="" style="endArrow=classic;startArrow=classic;html=1;rounded=0;exitX=1;exitY=0.5;exitDx=0;exitDy=0;entryX=0;entryY=0.5;entryDx=0;entryDy=0;" edge="1" parent="1" source="fsB3KkUO0RHxOK5EsC4q-32" target="fsB3KkUO0RHxOK5EsC4q-37">
          <mxGeometry width="50" height="50" relative="1" as="geometry">
            <mxPoint x="260" y="440" as="sourcePoint" />
            <mxPoint x="270" y="470" as="targetPoint" />
          </mxGeometry>
        </mxCell>
        <mxCell id="fsB3KkUO0RHxOK5EsC4q-44" value="" style="endArrow=classic;startArrow=classic;html=1;rounded=0;exitX=1;exitY=0.5;exitDx=0;exitDy=0;entryX=0;entryY=0.5;entryDx=0;entryDy=0;" edge="1" parent="1" source="fsB3KkUO0RHxOK5EsC4q-37" target="fsB3KkUO0RHxOK5EsC4q-33">
          <mxGeometry width="50" height="50" relative="1" as="geometry">
            <mxPoint x="260" y="375" as="sourcePoint" />
            <mxPoint x="300" y="375" as="targetPoint" />
          </mxGeometry>
        </mxCell>
      </root>
    </mxGraphModel>
  </diagram>
</mxfile>
